<svg width="88" height="156" viewBox="0 0 88 156" fill="none" xmlns="http://www.w3.org/2000/svg">
<path d="M54.0801 39.4669L50.9357 39C50.8387 39 50.7416 39 50.7416 39.0858L49.4023 40.7722C49.3335 40.8837 49.3028 41.0139 49.3149 41.1437C49.3149 41.239 49.2179 41.4295 49.1209 41.3343L48.0727 41.058C47.8786 41.058 47.6942 41.058 47.5972 41.239L43.3075 46.6697C43.2105 46.765 43.1134 46.765 42.9291 46.765L41.3083 46.0123C41.2379 45.9661 41.1552 45.9413 41.0705 45.9413C40.9858 45.9413 40.9031 45.9661 40.8327 46.0123L39.969 46.5744C39.8991 46.622 39.8162 46.6475 39.7312 46.6475C39.6462 46.6475 39.5633 46.622 39.4934 46.5744L39.115 46.3839C39.0523 46.3564 38.9843 46.3421 38.9157 46.3418C38.847 46.3415 38.779 46.3552 38.716 46.3821C38.653 46.409 38.5964 46.4484 38.5498 46.498C38.5032 46.5475 38.4677 46.606 38.4453 46.6697L38.1638 47.975C38.1273 48.1137 38.1347 48.26 38.185 48.3945C38.2353 48.5289 38.3261 48.6451 38.4453 48.7277L39.212 49.1945L41.2112 50.4141L42.1817 50.9762C42.316 51.0513 42.4711 51.0827 42.6246 51.0655C42.7782 51.0484 42.9222 50.9837 43.0358 50.8809L44.6565 49.4803C44.802 49.3939 44.9737 49.3602 45.1418 49.3851L45.6173 49.6614C45.8017 49.7566 45.9958 49.7567 46.0928 49.5661L46.9469 48.8229C47.0061 48.7604 47.0839 48.7175 47.1691 48.7005C47.2544 48.6834 47.343 48.6929 47.4225 48.7277L48.6647 49.2898C48.8588 49.3851 49.0432 49.2898 49.2373 49.1945L49.8099 48.4514L54.0995 43.0207C54.2839 42.7348 54.1966 42.3633 53.8084 42.3633L52.8379 42.1822C52.6438 42.1822 52.5564 41.8964 52.6437 41.7059L54.1772 39.9337C54.3713 39.7432 54.2645 39.4669 54.0801 39.4669Z" fill="white"/>
<path d="M39.8137 50.414C39.7167 50.3188 39.6196 50.414 39.6196 50.5093L40.0952 51.7193V52.0051L39.7167 53.5962C39.7105 53.6465 39.716 53.6975 39.7328 53.7454C39.7496 53.7933 39.7773 53.8368 39.8137 53.8726L40.9492 54.7205C41.005 54.7622 41.0732 54.7848 41.1433 54.7848C41.2135 54.7848 41.2817 54.7622 41.3374 54.7205L42.57 53.6915C42.6083 53.6555 42.6543 53.6283 42.7046 53.6118C42.755 53.5953 42.8085 53.59 42.8611 53.5962L44.1907 53.4057C44.2878 53.4057 44.2878 53.3104 44.1907 53.2152L39.8137 50.414Z" fill="white"/>
<path d="M39.3964 54.4347C39.3802 54.413 39.359 54.3954 39.3345 54.3833C39.3101 54.3712 39.2831 54.3649 39.2557 54.3649C39.2283 54.3649 39.2013 54.3712 39.1768 54.3833C39.1524 54.3954 39.1312 54.413 39.115 54.4347L38.1445 54.9016C38.1188 54.9016 38.094 54.9116 38.0758 54.9295C38.0576 54.9473 38.0474 54.9716 38.0474 54.9969L35.9511 60.0465H36.0482L36.5237 59.8654V59.9607L35 62.3903C35 62.4855 35 62.4855 35.0874 62.4855L40.4252 57.1501C40.5222 57.1501 40.5222 57.0548 40.5222 56.9595L40.6193 55.559C40.6193 55.4637 40.6192 55.3684 40.5222 55.3684L39.3964 54.4347Z" fill="white"/>
<path d="M58.5063 77.8829V84.4283H37C37 84.4283 47.2291 73.3954 48.5781 70.8039C49.6457 68.765 48.5102 67.536 47.4717 67.536C46.4333 67.536 45.2687 68.1171 45.2687 70.8039L37.0679 70.2608C37.0679 65.1541 40.717 61 47.4717 61C53.9838 61 57.9532 64.3728 57.9532 69.1747C57.9532 72.1663 55.3328 75.5772 52.4407 77.8924L58.5063 77.8829Z" fill="white"/>
<path d="M72 95.9952C72 102.613 67.1535 108 59.9947 108C52.8359 108 48 102.613 48 95.9952C48 89.3778 52.8359 84 59.9947 84C67.1535 84 72 89.3206 72 95.9952Z" fill="white"/>
<path d="M82.5063 122.883V129.428H61C61 129.428 71.2291 118.395 72.5781 115.804C73.6456 113.765 72.5102 112.536 71.4717 112.536C70.4333 112.536 69.2687 113.117 69.2687 115.804L61.0679 115.261C61.0679 110.154 64.7171 106 71.4717 106C77.9838 106 81.9531 109.373 81.9531 114.175C81.9531 117.166 79.3328 120.577 76.4407 122.892L82.5063 122.883Z" fill="white"/>
<path d="M87.7038 131V154.438H78.882V139.194L75 139.67V133.096L87.7038 131Z" fill="white"/>
<path fill-rule="evenodd" clip-rule="evenodd" d="M27.2077 39L24.0723 50.9571L20.946 39H15.19L12.0177 50.9952L8.88231 39H0L7.83408 61.8662H15.19L18.0772 52.5959L20.946 61.8662H28.3019L36.09 39H27.2077ZM29.1659 64V86.8662H20.3343V78.682H14.8316V86.8662H6V64H14.8316V72.1842H20.344V64H29.1659ZM29 87V109.866H37.8219V87H29ZM54.0036 126.321V132.866H38V110H46.8316V126.359L54.0036 126.321ZM62.8219 139.507V141.689H68.344V147.139H62.8219V149.321H69.9939V155.866H54V133H69.9939V139.545L62.8219 139.507Z" fill="url(#paint0_linear_61686:3291)"/>
<path d="M57.6324 26.9381C57.6343 29.3015 56.9221 31.6123 55.586 33.5784C54.2499 35.5444 52.3499 37.0773 50.1263 37.983C47.9027 38.8887 45.4553 39.1267 43.0939 38.6667C40.7325 38.2068 38.5631 37.0697 36.8601 35.3992C35.1571 33.7287 33.997 31.5998 33.5267 29.2819C33.0563 26.9641 33.2967 24.5613 34.2176 22.3776C35.1384 20.194 36.6983 18.3274 38.6999 17.0142C40.7015 15.701 43.0548 15 45.4623 15C48.6867 15.005 51.7778 16.2641 54.0587 18.5016C56.3397 20.7391 57.6247 23.7726 57.6324 26.9381Z" fill="url(#paint1_linear_61686:3291)"/>
<path d="M37.2921 11.4331C37.2921 14.4653 36.0651 17.3734 33.8811 19.5175C31.697 21.6616 28.7348 22.8662 25.646 22.8662H14V0L25.646 0C28.7348 0 31.697 1.20455 33.8811 3.34866C36.0651 5.49278 37.2921 8.40084 37.2921 11.4331Z" fill="url(#paint2_linear_61686:3291)"/>
<defs>
<linearGradient id="paint0_linear_61686:3291" x1="26" y1="36.5" x2="45.5" y2="164" gradientUnits="userSpaceOnUse">
<stop stop-color="#FF048B"/>
<stop offset="1" stop-color="#FFC522"/>
</linearGradient>
<linearGradient id="paint1_linear_61686:3291" x1="45.4622" y1="15" x2="45.4622" y2="38.8952" gradientUnits="userSpaceOnUse">
<stop stop-color="#FF048B"/>
<stop offset="1" stop-color="#FFC422"/>
</linearGradient>
<linearGradient id="paint2_linear_61686:3291" x1="25.646" y1="0" x2="25.646" y2="22.8662" gradientUnits="userSpaceOnUse">
<stop stop-color="#FF048B"/>
<stop offset="1" stop-color="#FFC422"/>
</linearGradient>
</defs>
</svg>
